<?xml version="1.0" encoding="utf-8"?>
<!-- Generator: Adobe Illustrator 23.0.1, SVG Export Plug-In . SVG Version: 6.00 Build 0)  -->
<svg version="1.1" id="Layer_1" xmlns="http://www.w3.org/2000/svg" xmlns:xlink="http://www.w3.org/1999/xlink" x="0px" y="0px"
	 viewBox="0 0 420 300" style="enable-background:new 0 0 420 300;" xml:space="preserve">
<style type="text/css">
	.st0{fill:#256092;}
	.st1{fill:#F25022;}
	.st2{fill:#80BA01;}
	.st3{fill:#FFFFFF;}
	.st4{fill:#02A4EF;}
	.st5{fill:#FFB902;}
</style>
<rect class="st0" width="420" height="300"/>
<g>
	<path class="st1" d="M85,123.3h25.4c0,8.5,0,16.9,0,25.4c-8.5,0-16.9,0-25.4,0V123.3L85,123.3z"/>
	<path class="st2" d="M113,123.3h25.4c0,8.5,0,16.9,0,25.4c-8.5,0-16.9,0-25.4,0C113,140.2,113,131.8,113,123.3L113,123.3z"/>
	<path class="st3" d="M314,133c2.3-1.5,5.4-1.7,8-0.9c0,1.6,0,3.1,0,4.7c-1.3-0.6-2.7-0.9-4-0.4c-1,0.4-1.7,1.5-1.8,2.6
		c-0.2,1.4-0.1,2.7-0.1,4.1c2.7,0,5.4,0,8,0c0-1.7,0-3.5,0-5.2c1.8-0.5,3.6-1.1,5.4-1.6c0,2.3,0,4.6,0,6.9c1.8,0,3.6,0,5.4,0v4.5
		c-1.8-0.1-3.6,0-5.5,0c0,2.6,0,5.1,0,7.7c0,1.4-0.1,2.8,0.1,4.3c0.1,0.8,0.4,1.8,1.2,2.2c1.3,0.7,3,0.4,4.2-0.4v4.5
		c-1.6,0.7-3.3,0.9-5,0.8c-1.6-0.1-3.3-0.7-4.3-2c-1.2-1.4-1.5-3.4-1.6-5.2c0-3.9,0-7.9,0-11.8c-2.7,0-5.4,0-8,0
		c0,6.2,0,12.4,0,18.5c-1.8,0-3.7,0-5.5,0c0-6.2,0-12.3,0-18.5c-1.3,0-2.5,0-3.8,0c0-1.5,0-2.9,0-4.4c1.3,0,2.5,0,3.8,0
		c0.1-1.9-0.2-4,0.4-5.9C311.4,135.5,312.5,134,314,133L314,133z"/>
	<path class="st3" d="M196.4,133.3c1.1-0.2,2.3,0.2,3,1.1c0.9,0.9,1,2.5,0.4,3.6c-0.7,1.3-2.3,1.8-3.7,1.5c-1.4-0.3-2.6-1.6-2.6-3.1
		C193.6,134.9,194.9,133.5,196.4,133.3L196.4,133.3z"/>
	<path class="st3" d="M154.3,134c2.7,0,5.3,0,8,0c2.5,6.3,5,12.6,7.5,18.9c0.6,1.6,1.2,3.2,1.9,4.7c3.2-7.9,6.4-15.8,9.6-23.7
		c2.6,0,5.1,0,7.7,0c0,10.7,0,21.4,0,32c-1.8,0-3.7,0-5.5,0c0-7.9,0-15.8,0-23.6c0-0.4,0-0.7,0-1.1c-0.1,0.2-0.2,0.3-0.3,0.5
		c-3.2,8.1-6.4,16.1-9.6,24.2c-1.3,0-2.6,0-3.9,0c-3.3-8.1-6.5-16.1-9.8-24.2c-0.1-0.2-0.2-0.3-0.3-0.5c-0.1,3.5,0,6.9,0,10.4
		c0,4.8,0,9.6,0,14.3c-1.7,0-3.5,0-5.2,0C154.3,155.3,154.3,144.7,154.3,134L154.3,134z"/>
	<path class="st3" d="M211.5,143c2.7-0.8,5.5-0.7,8.2,0c0.5,0.2,1.1,0.4,1.6,0.7c0,1.7,0,3.5,0,5.3c-1.8-1.4-4-2.2-6.3-1.9
		c-1.8,0.2-3.5,1.1-4.6,2.5c-1.4,1.8-1.7,4.2-1.5,6.4c0.2,1.7,0.9,3.4,2.2,4.6c1.4,1.2,3.3,1.7,5.1,1.5c1.8-0.2,3.5-1,4.9-2
		c0,1.7,0,3.3,0,5c-2.2,1.3-4.9,1.7-7.5,1.6c-2.6-0.1-5.3-1.1-7.2-3c-2.1-2-3.2-4.8-3.3-7.7c-0.1-3,0.5-6,2.2-8.5
		C206.9,145.2,209.1,143.7,211.5,143L211.5,143z"/>
	<path class="st3" d="M271.5,142.7c2.5-0.4,5.2-0.1,7.6,0.8c0,1.7,0,3.4,0,5c-1.7-1.2-3.7-1.8-5.8-1.7c-1,0-2.2,0.5-2.6,1.5
		c-0.4,1-0.1,2.2,0.8,2.8c1.6,1,3.4,1.5,5,2.4c1.3,0.7,2.5,1.6,3.1,3c1.2,2.5,0.7,5.8-1.4,7.7c-2,1.9-5,2.4-7.6,2.3
		c-1.9-0.1-3.8-0.5-5.6-1.3c0-1.8,0-3.5,0-5.3c1.5,1.1,3.2,1.8,5,2.2c1.3,0.2,2.6,0.2,3.8-0.3c1.1-0.6,1.3-2.1,0.7-3.1
		c-0.6-0.8-1.5-1.2-2.4-1.6c-1.6-0.7-3.3-1.3-4.7-2.4c-1-0.8-1.8-1.9-2.1-3.1c-0.4-1.8-0.3-3.9,0.8-5.5
		C267.3,144.2,269.4,143.1,271.5,142.7L271.5,142.7z"/>
	<path class="st3" d="M233.5,143.4c1.5-0.9,3.4-1,5.1-0.4c0,1.8,0,3.7,0,5.5c-1.1-0.7-2.4-1-3.7-0.9c-1.6,0.2-2.8,1.4-3.4,2.7
		c-0.7,1.5-0.8,3.1-0.8,4.7c0,3.7,0,7.3,0,11c-1.8,0-3.6,0-5.4,0c0-7.6,0-15.3,0-22.9c1.8,0,3.6,0,5.4,0c0,1.3,0,2.6,0,3.9
		C231.3,145.6,232.2,144.2,233.5,143.4L233.5,143.4z"/>
	<path class="st3" d="M194.1,143.1c1.8,0,3.6,0,5.5,0c0,7.6,0,15.3,0,22.9c-1.8,0-3.6,0-5.5,0C194.1,158.4,194.1,150.7,194.1,143.1
		L194.1,143.1z"/>
	<path class="st3" d="M248.7,142.6c2.6-0.3,5.4-0.2,7.9,0.9c2.1,1,3.8,2.7,4.8,4.8c1,2.3,1.3,4.8,1.1,7.2c-0.2,2.4-0.9,4.8-2.4,6.7
		c-1.5,2-3.8,3.4-6.3,3.9c-2.1,0.4-4.3,0.4-6.4,0c-2.5-0.5-4.9-2-6.3-4.1c-1.7-2.5-2.2-5.6-2-8.6c0.1-2.5,0.9-5,2.5-7
		C243.3,144.3,246,143,248.7,142.6L248.7,142.6z M250.4,147c-1.3,0.1-2.6,0.5-3.6,1.4c-1.3,1.2-2,3-2.1,4.8c-0.2,1.9-0.1,4,0.8,5.7
		c0.7,1.4,2,2.4,3.4,2.8c1.5,0.4,3.1,0.3,4.5-0.2c1.2-0.5,2.2-1.5,2.7-2.7c0.8-1.8,0.9-3.7,0.8-5.6c-0.1-1.7-0.6-3.5-1.9-4.8
		C253.8,147.4,252,146.9,250.4,147L250.4,147z"/>
	<path class="st3" d="M292.5,142.6c2.7-0.3,5.7-0.2,8.2,1.1c2.2,1.1,3.9,3.1,4.7,5.3c0.7,1.7,0.9,3.6,0.9,5.5c0,2.8-0.7,5.6-2.5,7.8
		c-1.6,2.1-4.1,3.5-6.8,3.9c-2.6,0.4-5.3,0.3-7.7-0.7c-2.5-1-4.5-3-5.6-5.4c-1.1-2.5-1.2-5.3-0.9-8c0.4-2.7,1.6-5.3,3.6-7.1
		C288.1,143.8,290.3,142.9,292.5,142.6L292.5,142.6z M294,147c-1.5,0.1-3,0.7-4,1.9c-1.1,1.3-1.5,2.9-1.7,4.6c-0.1,1.7,0,3.4,0.7,5
		c0.5,1.3,1.6,2.5,2.9,3c1.2,0.5,2.6,0.6,3.9,0.4c1.2-0.2,2.4-0.8,3.2-1.7c0.8-1,1.2-2.2,1.4-3.4c0.3-1.6,0.3-3.3,0-4.9
		c-0.3-1.4-0.9-2.7-2-3.7C297.2,147.3,295.6,146.9,294,147L294,147z"/>
	<path class="st4" d="M85,151.3c8.5,0,16.9,0,25.4,0c0,8.5,0,16.9,0,25.4H85V151.3L85,151.3z"/>
	<path class="st5" d="M113,151.3c8.5,0,16.9,0,25.4,0c0,8.5,0,16.9,0,25.4H113C113,168.2,113,159.8,113,151.3L113,151.3z"/>
</g>
</svg>
